<svg width="113" height="108" viewBox="0 0 113 108" fill="none" xmlns="http://www.w3.org/2000/svg">
    <path
        d="M106.754 27.3623L105.097 23.2508L101.089 21.3596L105.097 19.5094L106.754 15.6035L108.412 19.5094L112.42 21.3596L108.412 23.2508L106.754 27.3623ZM106.754 51.8255L105.097 47.8785L101.089 46.0283L105.097 44.1782L106.754 40.0256L108.412 44.1782L112.42 46.0283L108.412 47.8785L106.754 51.8255ZM89.8345 45.4938L86.2886 37.3942L78.5417 33.6939L86.2886 29.9936L89.8345 21.9352L93.4188 29.9936L101.127 33.6939L93.4188 37.3942L89.8345 45.4938ZM89.8345 39.4089L91.6845 35.4619L95.4615 33.6939L91.6845 31.926L89.8345 27.979L88.023 31.926L84.2074 33.6939L88.023 35.4619L89.8345 39.4089Z"
        fill="#09090C" />
    <path
        d="M28.7542 12.3623L27.097 8.25083L23.0886 6.35956L27.097 4.5094L28.7542 0.603516L30.4115 4.5094L34.4199 6.35956L30.4115 8.25083L28.7542 12.3623ZM28.7542 36.8255L27.097 32.8785L23.0886 31.0283L27.097 29.1782L28.7542 25.0256L30.4115 29.1782L34.4199 31.0283L30.4115 32.8785L28.7542 36.8255ZM11.8345 30.4938L8.28862 22.3942L0.541748 18.6939L8.28862 14.9936L11.8345 6.93516L15.4188 14.9936L23.1272 18.6939L15.4188 22.3942L11.8345 30.4938ZM11.8345 24.4089L13.6845 20.4619L17.4615 18.6939L13.6845 16.926L11.8345 12.979L10.023 16.926L6.20737 18.6939L10.023 20.4619L11.8345 24.4089Z"
        fill="#09090C" />
    <path
        d="M76.7999 96.9696L78.73 92.4914L82.928 90.4324L78.73 88.3735L76.7999 83.8952L74.8698 88.3735L70.6718 90.4324L74.8698 92.4914L76.7999 96.9696ZM76.7999 102.931L73.1385 94.3383L65.0833 90.4324L73.1385 86.5265L76.7999 77.9336L80.4614 86.5265L88.5166 90.4324L80.4614 94.3383L76.7999 102.931ZM90.0582 107.536L88.2468 103.219L84.1999 101.287L88.2468 99.3132L90.0582 95.0373L91.9082 99.3132L95.9166 101.287L91.9082 103.219L90.0582 107.536Z"
        fill="#09090C" />
</svg>